<?xml version="1.0" encoding="utf-8"?>
<!-- Generator: Adobe Illustrator 18.0.0, SVG Export Plug-In . SVG Version: 6.00 Build 0)  -->
<!DOCTYPE svg PUBLIC "-//W3C//DTD SVG 1.1//EN" "http://www.w3.org/Graphics/SVG/1.1/DTD/svg11.dtd">
<svg version="1.1" id="Layer_1" xmlns="http://www.w3.org/2000/svg" xmlns:xlink="http://www.w3.org/1999/xlink" x="0px" y="0px"
	 viewBox="0 0 595.3 385.9" enable-background="new 0 0 595.3 385.9" xml:space="preserve">
<g>
	<defs>
		<rect id="SVGID_1_" y="0" width="595.3" height="386.9"/>
	</defs>
	<clipPath id="SVGID_2_">
		<use xlink:href="#SVGID_1_"  overflow="visible"/>
	</clipPath>
	<g clip-path="url(#SVGID_2_)">
		<path fill-opacity="0" d="M0,0h595.3v386.9H0V0z"/>
		<path fill="#FFFFFF" d="M0,0h594.3v385.9H0V0z"/>
		<path fill="none" stroke="#000000" stroke-width="2" stroke-linejoin="round" stroke-miterlimit="10" d="M0,0h594.3v385.9H0V0z"/>
		<path fill="#FFFFFF" d="M26.2,19.6H194v167.9H26.2L26.2,19.6z"/>
		<path fill-opacity="0" d="M31.5,22.4H194v162.9H31.5L31.5,22.4z"/>
		<path fill="none" stroke="#000000" stroke-width="2" stroke-linejoin="round" stroke-miterlimit="10" d="M31.5,22.4H194v162.9
			H31.5L31.5,22.4z"/>
		<path fill="#FFFFFF" d="M39.4,67.1h146.7v100.4H39.4L39.4,67.1z"/>
		<path fill="none" stroke="#000000" stroke-width="2" stroke-linejoin="round" stroke-miterlimit="10" d="M39.4,67.1h146.7v100.4
			H39.4L39.4,67.1z"/>
		<path fill-opacity="0" d="M43.1,72.6h139.3v87.6H43.1L43.1,72.6z"/>
		<path d="M55.3,127l5.7-0.5c0.4,2.8,1.4,4.9,2.9,6.3c1.5,1.4,3.4,2.1,5.6,2.1c2.6,0,4.8-1,6.6-3c1.8-2,2.7-4.6,2.7-7.8
			c0-3.1-0.9-5.5-2.6-7.3c-1.7-1.8-4-2.7-6.8-2.7c-1.7,0-3.3,0.4-4.7,1.2c-1.4,0.8-2.5,1.8-3.3,3.1l-5.1-0.7l4.3-22.7h22v5.2H64.8
			L62.5,112c2.7-1.8,5.4-2.8,8.4-2.8c3.9,0,7.1,1.3,9.8,4c2.7,2.7,4,6.1,4,10.3c0,4-1.2,7.5-3.5,10.4c-2.8,3.6-6.7,5.4-11.6,5.4
			c-4,0-7.3-1.1-9.8-3.4C57.1,133.7,55.6,130.7,55.3,127z M92.6,112.7v-6.2h6.2v6.2H92.6z M92.6,138.5v-6.2h6.2v6.2H92.6z
			 M106.8,116.7c0-5.2,0.5-9.4,1.6-12.6c1.1-3.2,2.7-5.6,4.8-7.4c2.1-1.7,4.8-2.6,8-2.6c2.4,0,4.5,0.5,6.2,1.4
			c1.8,1,3.3,2.3,4.4,4.1c1.2,1.8,2.1,4,2.7,6.6c0.7,2.6,1,6.1,1,10.4c0,5.2-0.5,9.4-1.6,12.6c-1.1,3.2-2.7,5.6-4.8,7.4
			c-2.1,1.7-4.8,2.6-8,2.6c-4.3,0-7.6-1.5-10-4.6C108.2,131,106.8,125,106.8,116.7z M112.3,116.7c0,7.3,0.8,12.1,2.5,14.5
			c1.7,2.4,3.8,3.6,6.3,3.6s4.6-1.2,6.3-3.6c1.7-2.4,2.5-7.2,2.5-14.5c0-7.3-0.8-12.1-2.5-14.5c-1.7-2.4-3.8-3.6-6.3-3.6
			c-2.5,0-4.5,1.1-6,3.2C113.3,104.5,112.3,109.5,112.3,116.7z M141.1,116.7c0-5.2,0.5-9.4,1.6-12.6c1.1-3.2,2.7-5.6,4.8-7.4
			c2.1-1.7,4.8-2.6,8-2.6c2.4,0,4.5,0.5,6.2,1.4c1.8,1,3.3,2.3,4.4,4.1c1.2,1.8,2.1,4,2.7,6.6c0.7,2.6,1,6.1,1,10.4
			c0,5.2-0.5,9.4-1.6,12.6c-1.1,3.2-2.7,5.6-4.8,7.4c-2.1,1.7-4.8,2.6-8,2.6c-4.3,0-7.6-1.5-10-4.6C142.6,131,141.1,125,141.1,116.7
			z M146.7,116.7c0,7.3,0.8,12.1,2.5,14.5c1.7,2.4,3.8,3.6,6.3,3.6c2.5,0,4.6-1.2,6.3-3.6c1.7-2.4,2.5-7.2,2.5-14.5
			c0-7.3-0.8-12.1-2.5-14.5c-1.7-2.4-3.8-3.6-6.3-3.6c-2.5,0-4.5,1.1-6,3.2C147.6,104.5,146.7,109.5,146.7,116.7z"/>
		<path fill-opacity="0" d="M220.6,204h162.5v162.9H220.6V204z"/>
		<path fill="none" stroke="#000000" stroke-width="2" stroke-linejoin="round" stroke-miterlimit="10" d="M220.6,204h162.5v162.9
			H220.6V204z"/>
		<path fill-opacity="0" d="M407,22h162.5v162.9H407V22z"/>
		<path fill="none" stroke="#000000" stroke-width="2" stroke-linejoin="round" stroke-miterlimit="10" d="M407,22h162.5v162.9H407
			V22z"/>
		<path fill-opacity="0" d="M88.7,31.8h51.4v30.6H88.7V31.8z"/>
		<path fill="none" stroke="#000000" stroke-width="2" stroke-linejoin="round" stroke-miterlimit="10" d="M88.7,31.8h51.4v30.6
			H88.7V31.8z"/>
		<path fill-opacity="0" d="M148.7,47.1L148.7,47.1c0-8.4,7.3-15.3,16.2-15.3l0,0c4.3,0,8.4,1.6,11.5,4.5c3,2.9,4.8,6.8,4.8,10.8
			l0,0c0,8.4-7.3,15.3-16.2,15.3l0,0C155.9,62.4,148.7,55.5,148.7,47.1z"/>
		<path fill="none" stroke="#000000" stroke-width="2" stroke-linejoin="round" stroke-miterlimit="10" d="M148.7,47.1L148.7,47.1
			c0-8.4,7.3-15.3,16.2-15.3l0,0c4.3,0,8.4,1.6,11.5,4.5c3,2.9,4.8,6.8,4.8,10.8l0,0c0,8.4-7.3,15.3-16.2,15.3l0,0
			C155.9,62.4,148.7,55.5,148.7,47.1z"/>
		<path fill-opacity="0" d="M88.7,31.8h448.4v52.3H88.7V31.8z"/>
		<path fill="#FFFFFF" d="M215.5,19.5h167v168.9h-167V19.5z"/>
		<path fill-opacity="0" d="M220.8,22.3h161.7v163.9H220.8V22.3z"/>
		<path fill="none" stroke="#000000" stroke-width="2" stroke-linejoin="round" stroke-miterlimit="10" d="M220.8,22.3h161.7v163.9
			H220.8V22.3z"/>
		<path fill="#FFFFFF" d="M226.5,54h108.2v114.2H226.5V54z"/>
		<path fill="none" stroke="#000000" stroke-width="2" stroke-linejoin="round" stroke-miterlimit="10" d="M226.5,54h108.2v114.2
			H226.5V54z"/>
		<path d="M349.6,72.8h22.2v95.4h-22.2V72.8z"/>
		<path fill="none" stroke="#000000" stroke-width="2" stroke-linejoin="round" stroke-miterlimit="10" d="M349.6,72.8h22.2v95.4
			h-22.2V72.8z"/>
		<path fill="#FFFFFF" d="M354,39.1L354,39.1c0-4.1,3.3-7.4,7.5-7.4l0,0c2,0,3.9,0.8,5.3,2.2c1.4,1.4,2.2,3.3,2.2,5.2l0,0
			c0,4.1-3.3,7.4-7.5,7.4l0,0C357.4,46.5,354,43.2,354,39.1z"/>
		<path fill="none" stroke="#000000" stroke-width="2" stroke-linejoin="round" stroke-miterlimit="10" d="M354,39.1L354,39.1
			c0-4.1,3.3-7.4,7.5-7.4l0,0c2,0,3.9,0.8,5.3,2.2c1.4,1.4,2.2,3.3,2.2,5.2l0,0c0,4.1-3.3,7.4-7.5,7.4l0,0
			C357.4,46.5,354,43.2,354,39.1z"/>
		<path fill="#FFFFFF" d="M233.5,111.1L233.5,111.1c0-26.7,21.1-48.3,47.1-48.3l0,0c12.5,0,24.5,5.1,33.3,14.1
			c8.8,9.1,13.8,21.3,13.8,34.1l0,0c0,26.7-21.1,48.3-47.1,48.3l0,0C254.6,159.4,233.5,137.8,233.5,111.1z"/>
		<path fill="none" stroke="#000000" stroke-width="2" stroke-linejoin="round" stroke-miterlimit="10" d="M233.5,111.1L233.5,111.1
			c0-26.7,21.1-48.3,47.1-48.3l0,0c12.5,0,24.5,5.1,33.3,14.1c8.8,9.1,13.8,21.3,13.8,34.1l0,0c0,26.7-21.1,48.3-47.1,48.3l0,0
			C254.6,159.4,233.5,137.8,233.5,111.1z"/>
		<path fill-opacity="0" d="M240.1,93.9h97.2v34.3h-97.2V93.9z"/>
		<path d="M245.8,120.6V103h3.7v1.4h-2v14.8h2v1.4H245.8z M314,120.6h-3.7v-1.4h2v-14.8h-2V103h3.7V120.6z"/>
		<path fill-opacity="0" d="M237.9,66h85.4v90.1h-85.4V66z"/>
		<path fill="none" stroke="#000000" stroke-linejoin="round" stroke-miterlimit="10" d="M238,66h85.4v90.1H238V66z"/>
		<path fill-opacity="0" d="M226.8,54.8L238.1,66"/>
		<path fill="none" stroke="#000000" stroke-linejoin="round" stroke-miterlimit="10" d="M226.8,54.8L238.1,66"/>
		<path fill-opacity="0" d="M323.5,156.2l11.1,11.8"/>
		<path fill="none" stroke="#000000" stroke-linejoin="round" stroke-miterlimit="10" d="M323.5,156.2l11.1,11.8"/>
		<path fill-opacity="0" d="M334.6,54.8L323.7,66"/>
		<path fill="none" stroke="#000000" stroke-linejoin="round" stroke-miterlimit="10" d="M334.6,54.8L323.7,66"/>
		<path fill-opacity="0" d="M237.9,156.2L227,167.4"/>
		<path fill="none" stroke="#000000" stroke-linejoin="round" stroke-miterlimit="10" d="M237.9,156.2L227,167.4"/>
		<path fill-opacity="0" d="M244.8,48h12.5v6h-12.5V48z"/>
		<path fill="none" stroke="#000000" stroke-width="2" stroke-linejoin="round" stroke-miterlimit="10" d="M244.8,48h12.5v6h-12.5
			V48z"/>
		<path fill-opacity="0" d="M304.9,48h12.5v6h-12.5V48z"/>
		<path fill="none" stroke="#000000" stroke-width="2" stroke-linejoin="round" stroke-miterlimit="10" d="M304.9,48h12.5v6h-12.5
			V48z"/>
		<path fill-opacity="0" d="M258.7,50.2H303V54h-44.3V50.2z"/>
		<path fill="none" stroke="#000000" stroke-width="2" stroke-linejoin="round" stroke-miterlimit="10" d="M258.7,50.2H303V54h-44.3
			V50.2z"/>
		<path fill="#FFFFFF" d="M26.2,200.3H194v167.9H26.2L26.2,200.3z"/>
		<path fill-opacity="0" d="M31.5,203.1H194V366H31.5L31.5,203.1z"/>
		<path fill="none" stroke="#000000" stroke-width="2" stroke-linejoin="round" stroke-miterlimit="10" d="M31.5,203.1H194V366H31.5
			L31.5,203.1z"/>
		<path fill-opacity="0" d="M62,284.8l25.4-25.4l25.4,25.4l-25.4,25.4L62,284.8z"/>
		<path fill="none" stroke="#000000" stroke-width="2" stroke-linejoin="round" stroke-miterlimit="10" d="M62,284.8l25.4-25.4
			l25.4,25.4l-25.4,25.4L62,284.8z"/>
		<path fill-opacity="0" d="M87.5,309.9l25.4-25.4l25.4,25.4l-25.4,25.4L87.5,309.9z"/>
		<path fill="none" stroke="#000000" stroke-width="2" stroke-linejoin="round" stroke-miterlimit="10" d="M87.5,309.9l25.4-25.4
			l25.4,25.4l-25.4,25.4L87.5,309.9z"/>
		<path fill-opacity="0" d="M112.8,284.8l25.4-25.4l25.4,25.4l-25.4,25.4L112.8,284.8z"/>
		<path fill="none" stroke="#000000" stroke-width="2" stroke-linejoin="round" stroke-miterlimit="10" d="M112.8,284.8l25.4-25.4
			l25.4,25.4l-25.4,25.4L112.8,284.8z"/>
		<path fill-opacity="0" d="M87.5,259.2l25.4-25.4l25.4,25.4l-25.4,25.4L87.5,259.2z"/>
		<path fill="none" stroke="#000000" stroke-width="2" stroke-linejoin="round" stroke-miterlimit="10" d="M87.5,259.2l25.4-25.4
			l25.4,25.4l-25.4,25.4L87.5,259.2z"/>
		<path fill="#FFFFFF" d="M165.4,219.9L165.4,219.9c0-4,3.4-7.3,7.5-7.3l0,0c2,0,3.9,0.8,5.3,2.1c1.4,1.4,2.2,3.2,2.2,5.2l0,0
			c0,4-3.4,7.3-7.5,7.3l0,0C168.8,227.2,165.4,223.9,165.4,219.9z"/>
		<path fill="none" stroke="#000000" stroke-width="2" stroke-linejoin="round" stroke-miterlimit="10" d="M165.4,219.9L165.4,219.9
			c0-4,3.4-7.3,7.5-7.3l0,0c2,0,3.9,0.8,5.3,2.1c1.4,1.4,2.2,3.2,2.2,5.2l0,0c0,4-3.4,7.3-7.5,7.3l0,0
			C168.8,227.2,165.4,223.9,165.4,219.9z"/>
		<path fill="#FFFFFF" d="M400.1,202.1H568V370H400.1V202.1z"/>
		<path fill-opacity="0" d="M405.4,204.9H568v162.9H405.4V204.9z"/>
		<path fill="none" stroke="#000000" stroke-width="2" stroke-linejoin="round" stroke-miterlimit="10" d="M405.4,204.9H568v162.9
			H405.4V204.9z"/>
		<path fill="#FFFFFF" d="M539.4,221.7L539.4,221.7c0-4,3.4-7.3,7.5-7.3l0,0c2,0,3.9,0.8,5.3,2.1c1.4,1.4,2.2,3.2,2.2,5.2l0,0
			c0,4-3.4,7.3-7.5,7.3l0,0C542.8,229,539.4,225.8,539.4,221.7z"/>
		<path fill="none" stroke="#000000" stroke-width="2" stroke-linejoin="round" stroke-miterlimit="10" d="M539.4,221.7L539.4,221.7
			c0-4,3.4-7.3,7.5-7.3l0,0c2,0,3.9,0.8,5.3,2.1c1.4,1.4,2.2,3.2,2.2,5.2l0,0c0,4-3.4,7.3-7.5,7.3l0,0
			C542.8,229,539.4,225.8,539.4,221.7z"/>
		<path fill-opacity="0" d="M425.7,231.9h14.1v108.9h-14.1V231.9z"/>
		<path fill="none" stroke="#000000" stroke-width="2" stroke-linejoin="round" stroke-miterlimit="10" d="M425.7,231.9h14.1v108.9
			h-14.1V231.9z"/>
		<path fill-opacity="0" d="M527.3,253.6h14.1v86h-14.1V253.6z"/>
		<path fill="none" stroke="#000000" stroke-width="2" stroke-linejoin="round" stroke-miterlimit="10" d="M527.3,253.6h14.1v86
			h-14.1V253.6z"/>
		<path fill-opacity="0" d="M432.7,247.5c5.2-1.1,9.4,5.8,14.7,6.4c11.8,1.2,23.8-1.4,35.6-0.7c5.6,0.3,9.7,6.1,15.2,7.5
			c12.1,2.9,24.5,4.4,36.8,6.1"/>
		<path fill="none" stroke="#000000" stroke-width="2" stroke-linejoin="round" stroke-miterlimit="10" d="M432.7,247.5
			c5.2-1.1,9.4,5.8,14.7,6.4c11.8,1.2,23.8-1.4,35.6-0.7c5.6,0.3,9.7,6.1,15.2,7.5c12.1,2.9,24.5,4.4,36.8,6.1"/>
		<path fill-opacity="0" d="M434.5,265c11.8-5.4,25.4,6.7,38.3,6.6c11.6-0.1,23.8-3.8,34.7,0c9.1,3.2,21.1,14.8,27.9,7.9"/>
		<path fill="none" stroke="#000000" stroke-width="2" stroke-linejoin="round" stroke-miterlimit="10" d="M434.5,265
			c11.8-5.4,25.4,6.7,38.3,6.6c11.6-0.1,23.8-3.8,34.7,0c9.1,3.2,21.1,14.8,27.9,7.9"/>
		<path fill-opacity="0" d="M432.9,280.9c6.6-0.9,13.7-4.7,19.7-2c4.1,1.8,3.5,10.3,7.9,10.9c14.6,2,29.5-0.8,44.2-2
			c10.6-0.9,20.9,3.9,31.5,3.9"/>
		<path fill="none" stroke="#000000" stroke-width="2" stroke-linejoin="round" stroke-miterlimit="10" d="M432.9,280.9
			c6.6-0.9,13.7-4.7,19.7-2c4.1,1.8,3.5,10.3,7.9,10.9c14.6,2,29.5-0.8,44.2-2c10.6-0.9,20.9,3.9,31.5,3.9"/>
		<path fill-opacity="0" d="M432.5,294c7-0.5,14.1-2.9,20.9-1.1c5.4,1.4,10.3,4.6,15.9,5.2c10.8,1.2,21.8,1.1,32.4,3.6
			c5.7,1.3,10.4,2.8,14.1,2.9c6.7,0.3,14-3.7,20-0.7"/>
		<path fill="none" stroke="#000000" stroke-width="2" stroke-linejoin="round" stroke-miterlimit="10" d="M432.5,294
			c7-0.5,14.1-2.9,20.9-1.1c5.4,1.4,10.3,4.6,15.9,5.2c10.8,1.2,21.8,1.1,32.4,3.6c5.7,1.3,10.4,2.8,14.1,2.9c6.7,0.3,14-3.7,20-0.7
			"/>
		<path fill-opacity="0" d="M432.5,328.7c4.4,6,15.3,6.1,22,2.9c4.9-2.3,8.7-7.9,14.1-7.9c4.4,0,8.9,0.7,12.9,2.3
			c3,1.2,2.2,7.9,5.4,8.2c15.8,1.2,32,0.4,47.4-3.4"/>
		<path fill="none" stroke="#000000" stroke-width="2" stroke-linejoin="round" stroke-miterlimit="10" d="M432.5,328.7
			c4.4,6,15.3,6.1,22,2.9c4.9-2.3,8.7-7.9,14.1-7.9c4.4,0,8.9,0.7,12.9,2.3c3,1.2,2.2,7.9,5.4,8.2c15.8,1.2,32,0.4,47.4-3.4"/>
		<path fill-opacity="0" d="M435,311.9c22.3-4.1,45.7,2.8,67.2,10c4.3,1.4,7.7-5.6,12.2-5.9c6.9-0.5,13.7,1.4,20.6,1.4"/>
		<path fill="none" stroke="#000000" stroke-width="2" stroke-linejoin="round" stroke-miterlimit="10" d="M435,311.9
			c22.3-4.1,45.7,2.8,67.2,10c4.3,1.4,7.7-5.6,12.2-5.9c6.9-0.5,13.7,1.4,20.6,1.4"/>
		<text transform="matrix(1 0 0 1 250 118.3869)" font-family="'ArialMT'" font-size="18">TEXTO</text>
	</g>
</g>
</svg>
