<?xml version="1.0" encoding="utf-8"?>
<!-- Generator: Adobe Illustrator 18.0.0, SVG Export Plug-In . SVG Version: 6.00 Build 0)  -->
<!DOCTYPE svg PUBLIC "-//W3C//DTD SVG 1.1//EN" "http://www.w3.org/Graphics/SVG/1.1/DTD/svg11.dtd">
<svg version="1.1" id="Layer_1" xmlns="http://www.w3.org/2000/svg" xmlns:xlink="http://www.w3.org/1999/xlink" x="0px" y="0px"
	 viewBox="103.7 0 388 841.9" enable-background="new 103.7 0 388 841.9" xml:space="preserve">
<g>
	<defs>
		<rect id="SVGID_1_" x="103.7" y="0" width="387.8" height="841.9"/>
	</defs>
	<clipPath id="SVGID_2_">
		<use xlink:href="#SVGID_1_"  overflow="visible"/>
	</clipPath>
	<g clip-path="url(#SVGID_2_)">
		<path fill-opacity="0" d="M103.7,0h388v842.9h-388V0z"/>
		<path d="M365,466.9h106.7v71H365V466.9z"/>
		<path fill="none" stroke="#000000" stroke-width="2" stroke-linejoin="round" stroke-miterlimit="10" d="M365,466.9h106.7v71H365
			V466.9z"/>
		<path fill="#FFFFFF" d="M407.9,114.8h70.7v218.7h-70.7V114.8z"/>
		<path fill="none" stroke="#000000" stroke-width="2" stroke-linejoin="round" stroke-miterlimit="10" d="M407.9,114.8h70.7v218.7
			h-70.7V114.8z"/>
		<path fill="#FFFFFF" d="M109.6,173.8h50.2V287h-50.2V173.8z"/>
		<path fill="none" stroke="#000000" stroke-width="2" stroke-linejoin="round" stroke-miterlimit="10" d="M109.6,173.8h50.2V287
			h-50.2V173.8z"/>
		<path fill="#FFFFFF" d="M396.3,69.7h72.3l0,0c9.5,0,17.2,7.4,17.2,16.5s-7.7,16.5-17.2,16.5h-72.3l0,0c-9.5,0-17.2-7.4-17.2-16.5
			S386.8,69.7,396.3,69.7z"/>
		<path fill="none" stroke="#000000" stroke-width="2" stroke-linejoin="round" stroke-miterlimit="10" d="M396.3,69.7h72.3l0,0
			c9.5,0,17.2,7.4,17.2,16.5s-7.7,16.5-17.2,16.5h-72.3l0,0c-9.5,0-17.2-7.4-17.2-16.5S386.8,69.7,396.3,69.7z"/>
		<path fill="#FFFFFF" d="M116.9,511h70.7v218.7h-70.7L116.9,511z"/>
		<path fill="none" stroke="#000000" stroke-width="2" stroke-linejoin="round" stroke-miterlimit="10" d="M116.9,511h70.7v218.7
			h-70.7L116.9,511z"/>
		<path fill="#FFFFFF" d="M360,49h96.9v354.9H360V49z"/>
		<path fill="none" stroke="#000000" stroke-width="2" stroke-linejoin="round" stroke-miterlimit="10" d="M360,49h96.9v354.9H360
			V49z"/>
		<path d="M127.5,129.2h83.1v190.9h-83.1L127.5,129.2z"/>
		<path fill="none" stroke="#000000" stroke-width="2" stroke-linejoin="round" stroke-miterlimit="10" d="M127.5,129.2h83.1v190.9
			h-83.1L127.5,129.2z"/>
		<path fill="#FFFFFF" d="M127.6,69.7h72.3l0,0c9.5,0,17.2,7.4,17.2,16.5s-7.7,16.5-17.2,16.5h-72.3l0,0c-9.5,0-17.2-7.4-17.2-16.5
			S118.1,69.7,127.6,69.7z"/>
		<path fill="none" stroke="#000000" stroke-width="2" stroke-linejoin="round" stroke-miterlimit="10" d="M127.6,69.7h72.3l0,0
			c9.5,0,17.2,7.4,17.2,16.5s-7.7,16.5-17.2,16.5h-72.3l0,0c-9.5,0-17.2-7.4-17.2-16.5S118.1,69.7,127.6,69.7z"/>
		<path fill="#FFFFFF" d="M127.6,466.5h72.3l0,0c9.5,0,17.2,7.4,17.2,16.5c0,9.1-7.7,16.5-17.2,16.5h-72.3l0,0
			c-9.5,0-17.2-7.4-17.2-16.5C110.4,473.9,118.1,466.5,127.6,466.5z"/>
		<path fill="none" stroke="#000000" stroke-width="2" stroke-linejoin="round" stroke-miterlimit="10" d="M127.6,466.5h72.3l0,0
			c9.5,0,17.2,7.4,17.2,16.5c0,9.1-7.7,16.5-17.2,16.5h-72.3l0,0c-9.5,0-17.2-7.4-17.2-16.5C110.4,473.9,118.1,466.5,127.6,466.5z"
			/>
		<path fill="#FFFFFF" d="M137.2,49H195v354.9h-57.8V49z"/>
		<path fill="none" stroke="#000000" stroke-width="2" stroke-linejoin="round" stroke-miterlimit="10" d="M137.2,49H195v354.9
			h-57.8V49z"/>
		<path fill="#FFFFFF" d="M396.3,466.5h72.3l0,0c9.5,0,17.2,7.4,17.2,16.5c0,9.1-7.7,16.5-17.2,16.5h-72.3l0,0
			c-9.5,0-17.2-7.4-17.2-16.5C379.1,473.9,386.8,466.5,396.3,466.5z"/>
		<path fill="none" stroke="#000000" stroke-width="2" stroke-linejoin="round" stroke-miterlimit="10" d="M396.3,466.5h72.3l0,0
			c9.5,0,17.2,7.4,17.2,16.5c0,9.1-7.7,16.5-17.2,16.5h-72.3l0,0c-9.5,0-17.2-7.4-17.2-16.5C379.1,473.9,386.8,466.5,396.3,466.5z"
			/>
		<path fill="#FFFFFF" d="M368.4,646.8h112.1v47.1H368.4V646.8z"/>
		<path fill="none" stroke="#000000" stroke-width="2" stroke-linejoin="round" stroke-miterlimit="10" d="M368.4,646.8h112.1v47.1
			H368.4V646.8z"/>
		<path fill="#FFFFFF" d="M368.4,571.9h112.1V619H368.4V571.9z"/>
		<path fill="none" stroke="#000000" stroke-width="2" stroke-linejoin="round" stroke-miterlimit="10" d="M368.4,571.9h112.1V619
			H368.4V571.9z"/>
		<path fill="#FFFFFF" d="M368.4,724.7h112.1v47.1H368.4V724.7z"/>
		<path fill="none" stroke="#000000" stroke-width="2" stroke-linejoin="round" stroke-miterlimit="10" d="M368.4,724.7h112.1v47.1
			H368.4V724.7z"/>
		<path fill-opacity="0" d="M110.4,543.6h26.2"/>
		<path fill="none" stroke="#000000" stroke-width="2" stroke-linejoin="round" stroke-miterlimit="10" d="M110.4,543.6h26.2"/>
		<path fill-opacity="0" d="M110.4,598.1h26.2"/>
		<path fill="none" stroke="#000000" stroke-width="2" stroke-linejoin="round" stroke-miterlimit="10" d="M110.4,598.1h26.2"/>
		<path fill-opacity="0" d="M110.4,648.4h26.2"/>
		<path fill="none" stroke="#000000" stroke-width="2" stroke-linejoin="round" stroke-miterlimit="10" d="M110.4,648.4h26.2"/>
		<path fill-opacity="0" d="M110.4,708.4h26.9"/>
		<path fill="none" stroke="#000000" stroke-width="2" stroke-linejoin="round" stroke-miterlimit="10" d="M110.4,708.4h26.9"/>
		<path fill="#FFFFFF" d="M137.2,445.4h319.7v354.9H137.2L137.2,445.4z"/>
		<path fill="none" stroke="#000000" stroke-width="2" stroke-linejoin="round" stroke-miterlimit="10" d="M137.2,445.4h319.7v354.9
			H137.2L137.2,445.4z"/>
		<path fill="#FFFFFF" d="M162.6,1h269.7v840.9H162.6L162.6,1z"/>
		<path fill="none" stroke="#000000" stroke-width="2" stroke-linejoin="round" stroke-miterlimit="10" d="M162.6,1h269.7v840.9
			H162.6L162.6,1z"/>
		<path fill-opacity="0" d="M407.9,32.8v331.8h-71V32.8L407.9,32.8z"/>
		<path fill="none" stroke="#000000" stroke-width="2" stroke-linejoin="round" stroke-miterlimit="10" d="M407.9,32.8v331.8h-71
			V32.8L407.9,32.8z"/>
		<g>
			<path d="M382.6,44.8h-19v2c0,0.8-0.1,1.3-0.4,1.7c-0.3,0.3-0.7,0.5-1.2,0.5s-0.9-0.2-1.2-0.5c-0.3-0.3-0.5-0.9-0.5-1.7v-5.2h25.5
				v5.2c0,0.8-0.2,1.3-0.5,1.7c-0.3,0.3-0.7,0.5-1.2,0.5c-0.5,0-0.9-0.2-1.2-0.5c-0.3-0.3-0.5-0.9-0.5-1.7V44.8z"/>
			<path d="M378.4,58.6h-9.8v1.2c0,0.8-0.1,1.3-0.5,1.7c-0.3,0.3-0.7,0.5-1.2,0.5c-0.5,0-0.9-0.2-1.2-0.5c-0.3-0.3-0.5-0.9-0.5-1.7
				v-4.3c0-0.8,0.2-1.3,0.5-1.7c0.3-0.3,0.7-0.5,1.2-0.5c0.5,0,0.8,0.2,1.2,0.5c0.3,0.3,0.5,0.8,0.5,1.5h12.7v-0.5
				c0-0.8,0.2-1.3,0.5-1.7c0.3-0.3,0.7-0.5,1.2-0.5s0.9,0.2,1.2,0.5c0.3,0.3,0.5,0.9,0.5,1.7l0,3.7l-13,8.3h9.8v-1.2
				c0-0.8,0.2-1.3,0.5-1.7c0.3-0.3,0.7-0.5,1.2-0.5s0.9,0.2,1.2,0.5c0.3,0.3,0.5,0.9,0.5,1.7l0,4.3c0,0.8-0.1,1.3-0.4,1.7
				c-0.3,0.3-0.7,0.5-1.2,0.5c-0.5,0-0.9-0.2-1.2-0.5c-0.3-0.3-0.5-0.8-0.5-1.5h-15.9v-3.2L378.4,58.6z"/>
			<path d="M381.3,89.5h-9.2c-2,0-3.7-0.7-5.1-2.2c-1.4-1.4-2.1-3.2-2.1-5.2c0-1,0.2-1.9,0.5-2.8c0.4-0.9,0.9-1.7,1.6-2.4
				c0.7-0.7,1.4-1.2,2.1-1.6c0.7-0.4,1.7-0.6,3-0.6h9.2c0-0.7,0.2-1.2,0.5-1.5c0.3-0.3,0.7-0.5,1.2-0.5c0.5,0,0.9,0.2,1.2,0.5
				c0.3,0.3,0.4,0.9,0.4,1.7l0,4.3c0,0.8-0.2,1.3-0.5,1.7c-0.3,0.3-0.7,0.5-1.2,0.5s-0.9-0.2-1.2-0.5c-0.3-0.3-0.5-0.9-0.5-1.7v-1.2
				h-9.5c-1,0-1.8,0.4-2.6,1.2s-1.1,1.8-1.1,2.9c0,0.8,0.2,1.5,0.5,2.1c0.4,0.7,0.9,1.2,1.6,1.6c0.4,0.3,1,0.4,1.6,0.4h9.5v-1.2
				c0-0.8,0.2-1.3,0.5-1.7c0.3-0.3,0.7-0.5,1.2-0.5s0.9,0.2,1.2,0.5c0.3,0.3,0.5,0.9,0.5,1.7l0,4.3c0,0.8-0.1,1.3-0.4,1.7
				c-0.3,0.3-0.7,0.5-1.2,0.5c-0.5,0-0.9-0.2-1.2-0.5C381.4,90.7,381.3,90.1,381.3,89.5z M389.9,84.9l-2.9-3.6
				c-0.3-0.4-0.4-0.7-0.4-0.9c0-0.3,0.1-0.5,0.3-0.8c0.2-0.2,0.4-0.3,0.7-0.3c0.3,0,0.7,0.2,1,0.6l2.9,3.6c0.3,0.4,0.4,0.7,0.4,0.9
				c0,0.3-0.1,0.5-0.3,0.8c-0.2,0.2-0.4,0.3-0.7,0.3C390.6,85.5,390.2,85.3,389.9,84.9z"/>
			<path d="M378.2,96.4h-9.7v1.2c0,0.8-0.1,1.3-0.5,1.7c-0.3,0.3-0.7,0.5-1.2,0.5c-0.5,0-0.9-0.2-1.2-0.5c-0.3-0.3-0.5-0.9-0.5-1.7
				v-4.3c0-0.8,0.2-1.3,0.5-1.7c0.3-0.3,0.7-0.5,1.2-0.5c0.5,0,0.9,0.2,1.2,0.5c0.3,0.3,0.5,0.8,0.5,1.5h12.7c0.1-0.6,0.2-1,0.5-1.3
				c0.3-0.3,0.7-0.4,1.1-0.4c0.5,0,0.9,0.2,1.2,0.5c0.3,0.3,0.5,0.9,0.5,1.7l0,3.6l-9.8,4.4l9.8,4.3l0,3.6c0,0.8-0.1,1.3-0.4,1.7
				s-0.7,0.5-1.2,0.5c-0.4,0-0.8-0.1-1.1-0.4c-0.3-0.3-0.5-0.7-0.5-1.3h-12.7c0,0.7-0.2,1.2-0.5,1.5c-0.3,0.3-0.7,0.5-1.2,0.5
				s-0.9-0.2-1.2-0.5c-0.3-0.3-0.5-0.9-0.5-1.7v-4.3c0-0.8,0.2-1.3,0.5-1.7c0.3-0.3,0.7-0.5,1.2-0.5c0.5,0,0.9,0.2,1.2,0.5
				c0.3,0.3,0.5,0.9,0.5,1.7v1.2h9.7l-8.4-3.7v-2.8L378.2,96.4z"/>
			<path d="M373.3,117.6h-4.8v8.3h1.8c0.8,0,1.3,0.2,1.7,0.5c0.3,0.3,0.5,0.7,0.5,1.2c0,0.5-0.2,0.9-0.5,1.2
				c-0.3,0.3-0.9,0.5-1.7,0.5h-5v-15.3c0-0.8,0.2-1.3,0.5-1.7c0.3-0.3,0.7-0.5,1.2-0.5c0.5,0,0.9,0.2,1.2,0.5
				c0.3,0.3,0.5,0.9,0.5,1.7v0.5h12.7v-0.5c0-0.8,0.2-1.3,0.5-1.7c0.3-0.3,0.7-0.5,1.2-0.5s0.9,0.2,1.2,0.5c0.3,0.3,0.5,0.9,0.5,1.7
				l0,14.6h-4.9c-0.8,0-1.3-0.1-1.7-0.4c-0.3-0.3-0.5-0.7-0.5-1.2c0-0.5,0.2-0.9,0.5-1.2c0.3-0.3,0.9-0.5,1.7-0.5h1.7v-7.6h-4.7v2.8
				c0.8,0,1.4,0.1,1.6,0.2c0.5,0.3,0.8,0.8,0.8,1.4c0,0.5-0.2,0.9-0.5,1.2c-0.3,0.3-0.9,0.5-1.7,0.5h-3.7c-0.7,0-1.2-0.1-1.4-0.3
				c-0.5-0.3-0.7-0.8-0.7-1.4c0-0.6,0.3-1.1,0.8-1.4c0.2-0.2,0.8-0.2,1.6-0.2V117.6z"/>
			<path d="M372.7,137h-4.1v1.2c0,0.8-0.1,1.3-0.5,1.7c-0.3,0.3-0.7,0.5-1.2,0.5c-0.5,0-0.9-0.2-1.2-0.5c-0.3-0.3-0.5-0.9-0.5-1.7
				v-4.9c0-0.8,0.2-1.3,0.5-1.7c0.3-0.3,0.7-0.5,1.2-0.5c0.5,0,0.9,0.2,1.2,0.5c0.3,0.3,0.5,0.9,0.5,1.7v0.5h12.7v-0.5
				c0-0.8,0.2-1.3,0.5-1.7c0.3-0.3,0.7-0.5,1.2-0.5s0.9,0.2,1.2,0.5s0.5,0.9,0.5,1.7l0,7.3c0,2.3-0.6,4.1-1.7,5.3
				c-1.1,1.3-2.5,1.9-4.1,1.9c-1,0-1.9-0.3-2.8-0.9c-0.8-0.6-1.6-1.5-2.2-2.7c-0.6,0.7-1.4,1.4-2.3,2.2c-0.6,0.5-1.5,1.1-2.8,2
				c0,0.8-0.1,1.4-0.3,1.6c-0.3,0.5-0.8,0.7-1.4,0.7c-0.5,0-0.9-0.2-1.2-0.5c-0.3-0.3-0.5-0.9-0.5-1.7v-1.9c4.1-2.6,6.5-4.8,7.3-6.5
				V137z M375.9,137v2.5c0,0.9,0.1,1.8,0.4,2.5c0.4,1,0.8,1.7,1.2,2c0.4,0.3,0.8,0.5,1.2,0.5c0.6,0,1.2-0.3,1.7-1
				c0.5-0.7,0.8-1.6,0.8-2.9V137H375.9z"/>
			<path d="M374.9,168.9c-2.9,0-5.3-0.9-7.2-2.7c-1.9-1.8-2.9-3.9-2.9-6.4c0-2.2,0.8-4.1,2.4-5.9c2-2.2,4.5-3.2,7.7-3.2
				c3.1,0,5.7,1.1,7.7,3.2c1.6,1.7,2.4,3.7,2.4,5.9c0,2.4-1,4.5-2.9,6.4C380.2,168,377.8,168.9,374.9,168.9z M374.9,165.7
				c2,0,3.6-0.6,4.9-1.8s1.9-2.5,1.9-4.1c0-1.5-0.6-2.9-1.9-4c-1.3-1.2-2.9-1.8-4.9-1.8c-2,0-3.6,0.6-4.9,1.8
				c-1.3,1.2-1.9,2.5-1.9,4c0,1.5,0.6,2.9,1.9,4.1C371.3,165.1,372.9,165.7,374.9,165.7z"/>
			<path d="M368.6,191.4h12.7c0-0.7,0.2-1.2,0.5-1.5c0.3-0.3,0.7-0.5,1.2-0.5c0.5,0,0.9,0.2,1.2,0.5c0.3,0.3,0.5,0.9,0.5,1.7l0,6.8
				c0,1.1-0.2,2.1-0.6,3.1c-0.4,1-0.9,1.8-1.5,2.4c-0.5,0.5-1.1,0.9-1.9,1.4c-0.8,0.5-1.6,0.9-2.4,1.1c-0.8,0.3-1.7,0.4-2.9,0.4
				h-1.5c-1.4,0-2.6-0.2-3.6-0.7c-1.1-0.5-1.9-1.1-2.6-1.8c-0.7-0.8-1.2-1.5-1.5-2.1c-0.5-1.1-0.7-2.4-0.7-4.1v-6.5
				c0-0.8,0.2-1.3,0.5-1.7c0.3-0.3,0.7-0.5,1.2-0.5c0.5,0,0.9,0.2,1.2,0.5C368.4,190.2,368.6,190.7,368.6,191.4z M368.6,194.7v3.4
				c0,1.3,0.2,2.3,0.6,2.9c0.5,0.9,1.1,1.5,1.9,1.9c0.7,0.4,1.7,0.6,2.9,0.6h1.5c1,0,1.9-0.2,2.7-0.6c1.2-0.6,2-1.3,2.5-2.1
				c0.4-0.8,0.7-1.7,0.7-2.9v-3.4H368.6z"/>
			<path d="M373.3,214.8h-4.8v8.3h1.8c0.8,0,1.3,0.2,1.7,0.5c0.3,0.3,0.5,0.7,0.5,1.2c0,0.5-0.2,0.9-0.5,1.2
				c-0.3,0.3-0.9,0.5-1.7,0.5h-5V211c0-0.8,0.2-1.3,0.5-1.7c0.3-0.3,0.7-0.5,1.2-0.5c0.5,0,0.9,0.2,1.2,0.5c0.3,0.3,0.5,0.9,0.5,1.7
				v0.5h12.7V211c0-0.8,0.2-1.3,0.5-1.7c0.3-0.3,0.7-0.5,1.2-0.5s0.9,0.2,1.2,0.5c0.3,0.3,0.5,0.9,0.5,1.7l0,14.6h-4.9
				c-0.8,0-1.3-0.1-1.7-0.4c-0.3-0.3-0.5-0.7-0.5-1.2c0-0.5,0.2-0.9,0.5-1.2c0.3-0.3,0.9-0.5,1.7-0.5h1.7v-7.6h-4.7v2.8
				c0.8,0,1.4,0.1,1.6,0.2c0.5,0.3,0.8,0.8,0.8,1.4c0,0.5-0.2,0.9-0.5,1.2c-0.3,0.3-0.9,0.5-1.7,0.5h-3.7c-0.7,0-1.2-0.1-1.4-0.3
				c-0.5-0.3-0.7-0.8-0.7-1.4c0-0.6,0.3-1.1,0.8-1.4c0.2-0.2,0.8-0.2,1.6-0.2V214.8z"/>
			<path d="M366.2,252.3c-0.3-0.3-0.6-0.5-0.6-0.7c-0.1-0.2-0.1-0.4-0.1-0.6c0-0.5,0.2-0.9,0.5-1.2c0.3-0.3,0.9-0.5,1.7-0.5h2.2
				c0.8,0,1.3,0.2,1.7,0.5c0.3,0.3,0.5,0.7,0.5,1.2c0,0.4-0.1,0.7-0.3,1c-0.2,0.3-0.5,0.5-1,0.6c-0.5,0.1-0.8,0.3-1,0.4
				c-0.3,0.3-0.7,0.8-1,1.6s-0.5,1.6-0.5,2.6c0,1.4,0.3,2.6,1,3.6c0.4,0.6,0.9,0.9,1.5,0.9c0.4,0,0.8-0.1,1.1-0.4
				c0.4-0.3,0.6-0.7,0.9-1.4c0.2-0.4,0.4-1.4,0.6-2.8c0.3-1.8,0.7-3.1,1.2-4c0.5-0.9,1.1-1.6,2-2.2c0.8-0.5,1.8-0.8,2.7-0.8
				c1.5,0,2.9,0.6,4.1,1.9c1.2,1.3,1.7,3,1.7,5.1c0,0.8-0.1,1.6-0.3,2.3c-0.2,0.7-0.5,1.4-0.8,1.9c0.4,0.4,0.6,0.8,0.6,1.3
				c0,0.5-0.2,0.9-0.5,1.2c-0.3,0.3-0.9,0.5-1.7,0.5h-2.4c-0.8,0-1.3-0.2-1.7-0.5c-0.3-0.3-0.5-0.7-0.5-1.2c0-0.4,0.1-0.7,0.4-1
				c0.2-0.2,0.5-0.4,1.1-0.5c0.5-0.1,0.9-0.3,1.2-0.4c0.4-0.3,0.7-0.8,1-1.4c0.3-0.6,0.4-1.3,0.4-2.1c0-1.2-0.3-2.1-0.8-2.8
				c-0.5-0.7-1.1-1-1.7-1c-0.4,0-0.8,0.1-1.2,0.4c-0.4,0.3-0.7,0.7-0.9,1.2c-0.1,0.4-0.4,1.4-0.7,3c-0.3,1.7-0.7,2.9-1.1,3.8
				c-0.4,0.9-1,1.6-1.8,2.2c-0.8,0.6-1.8,0.9-3,0.9c-1.6,0-2.9-0.6-3.8-1.7c-1.3-1.5-1.9-3.4-1.9-5.7c0-0.9,0.1-1.8,0.3-2.6
				C365.4,253.9,365.7,253.1,366.2,252.3z"/>
			<path d="M373.3,273.1h-4.8v8.3h1.8c0.8,0,1.3,0.2,1.7,0.5c0.3,0.3,0.5,0.7,0.5,1.2c0,0.5-0.2,0.9-0.5,1.2
				c-0.3,0.3-0.9,0.5-1.7,0.5h-5v-15.3c0-0.8,0.2-1.3,0.5-1.7c0.3-0.3,0.7-0.5,1.2-0.5c0.5,0,0.9,0.2,1.2,0.5
				c0.3,0.3,0.5,0.9,0.5,1.7v0.5h12.7v-0.5c0-0.8,0.2-1.3,0.5-1.7c0.3-0.3,0.7-0.5,1.2-0.5s0.9,0.2,1.2,0.5c0.3,0.3,0.5,0.9,0.5,1.7
				l0,14.6h-4.9c-0.8,0-1.3-0.1-1.7-0.4c-0.3-0.3-0.5-0.7-0.5-1.2c0-0.5,0.2-0.9,0.5-1.2c0.3-0.3,0.9-0.5,1.7-0.5h1.7v-7.6h-4.7v2.8
				c0.8,0,1.4,0.1,1.6,0.2c0.5,0.3,0.8,0.8,0.8,1.4c0,0.5-0.2,0.9-0.5,1.2c-0.3,0.3-0.9,0.5-1.7,0.5h-3.7c-0.7,0-1.2-0.1-1.4-0.3
				c-0.5-0.3-0.7-0.8-0.7-1.4c0-0.6,0.3-1.1,0.8-1.4c0.2-0.2,0.8-0.2,1.6-0.2V273.1z M389.9,278.9l-2.9-3.6
				c-0.3-0.4-0.4-0.7-0.4-0.9c0-0.3,0.1-0.5,0.3-0.8c0.2-0.2,0.4-0.3,0.7-0.3c0.3,0,0.7,0.2,1,0.6l2.9,3.6c0.3,0.4,0.4,0.7,0.4,0.9
				c0,0.3-0.1,0.5-0.3,0.8c-0.2,0.2-0.4,0.3-0.7,0.3C390.6,279.5,390.2,279.3,389.9,278.9z"/>
			<path d="M372.7,292.5h-4.1v1.2c0,0.8-0.1,1.3-0.5,1.7c-0.3,0.3-0.7,0.5-1.2,0.5c-0.5,0-0.9-0.2-1.2-0.5c-0.3-0.3-0.5-0.9-0.5-1.7
				v-4.9c0-0.8,0.2-1.3,0.5-1.7c0.3-0.3,0.7-0.5,1.2-0.5c0.5,0,0.9,0.2,1.2,0.5c0.3,0.3,0.5,0.9,0.5,1.7v0.5h12.7v-0.5
				c0-0.8,0.2-1.3,0.5-1.7c0.3-0.3,0.7-0.5,1.2-0.5s0.9,0.2,1.2,0.5c0.3,0.3,0.5,0.9,0.5,1.7l0,7.3c0,2.3-0.6,4.1-1.7,5.3
				c-1.1,1.3-2.5,1.9-4.1,1.9c-1,0-1.9-0.3-2.8-0.9c-0.8-0.6-1.6-1.5-2.2-2.7c-0.6,0.7-1.4,1.4-2.3,2.2c-0.6,0.5-1.5,1.1-2.8,2
				c0,0.8-0.1,1.4-0.3,1.6c-0.3,0.5-0.8,0.7-1.4,0.7c-0.5,0-0.9-0.2-1.2-0.5c-0.3-0.3-0.5-0.9-0.5-1.7v-1.9c4.1-2.6,6.5-4.8,7.3-6.5
				V292.5z M375.9,292.5v2.5c0,0.9,0.1,1.8,0.4,2.5c0.4,1,0.8,1.7,1.2,2c0.4,0.3,0.8,0.5,1.2,0.5c0.6,0,1.2-0.3,1.7-1
				c0.5-0.7,0.8-1.6,0.8-2.9v-3.7H375.9z"/>
			<path d="M381.3,316.9h-12.7v3.3c0,0.8-0.1,1.3-0.5,1.7c-0.3,0.3-0.7,0.5-1.2,0.5c-0.5,0-0.9-0.2-1.2-0.5
				c-0.3-0.3-0.5-0.9-0.5-1.7v-9.8c0-0.8,0.2-1.3,0.5-1.7c0.3-0.3,0.7-0.5,1.2-0.5c0.5,0,0.9,0.2,1.2,0.5c0.3,0.3,0.5,0.9,0.5,1.7
				v3.3h12.7v-3.3c0-0.8,0.2-1.3,0.5-1.7c0.3-0.3,0.7-0.5,1.2-0.5s0.9,0.2,1.2,0.5s0.5,0.9,0.5,1.7l0,9.8c0,0.8-0.1,1.3-0.4,1.7
				c-0.3,0.3-0.7,0.5-1.2,0.5s-0.9-0.2-1.2-0.5c-0.3-0.3-0.5-0.9-0.5-1.7V316.9z"/>
			<path d="M373.3,331.4h-4.8v8.3h1.8c0.8,0,1.3,0.2,1.7,0.5c0.3,0.3,0.5,0.7,0.5,1.2c0,0.5-0.2,0.9-0.5,1.2
				c-0.3,0.3-0.9,0.5-1.7,0.5h-5v-15.3c0-0.8,0.2-1.3,0.5-1.7c0.3-0.3,0.7-0.5,1.2-0.5c0.5,0,0.9,0.2,1.2,0.5
				c0.3,0.3,0.5,0.9,0.5,1.7v0.5h12.7v-0.5c0-0.8,0.2-1.3,0.5-1.7c0.3-0.3,0.7-0.5,1.2-0.5s0.9,0.2,1.2,0.5c0.3,0.3,0.5,0.9,0.5,1.7
				l0,14.6h-4.9c-0.8,0-1.3-0.1-1.7-0.4c-0.3-0.3-0.5-0.7-0.5-1.2c0-0.5,0.2-0.9,0.5-1.2c0.3-0.3,0.9-0.5,1.7-0.5h1.7v-7.6h-4.7v2.8
				c0.8,0,1.4,0.1,1.6,0.2c0.5,0.3,0.8,0.8,0.8,1.4c0,0.5-0.2,0.9-0.5,1.2c-0.3,0.3-0.9,0.5-1.7,0.5h-3.7c-0.7,0-1.2-0.1-1.4-0.3
				c-0.5-0.3-0.7-0.8-0.7-1.4c0-0.6,0.3-1.1,0.8-1.4c0.2-0.2,0.8-0.2,1.6-0.2V331.4z"/>
			<path d="M363.5,352.6h19v-2c0-0.8,0.2-1.3,0.5-1.7c0.3-0.3,0.7-0.5,1.2-0.5c0.5,0,0.9,0.2,1.2,0.5c0.3,0.3,0.5,0.9,0.5,1.7v5.2
				h-25.5v-5.2c0-0.8,0.2-1.3,0.5-1.7c0.3-0.3,0.7-0.5,1.2-0.5c0.5,0,0.9,0.2,1.2,0.5c0.3,0.3,0.5,0.9,0.5,1.7V352.6z"/>
		</g>
	</g>
</g>
</svg>
