<?xml version="1.0" encoding="utf-8"?>
<!-- Generator: Adobe Illustrator 18.0.0, SVG Export Plug-In . SVG Version: 6.00 Build 0)  -->
<!DOCTYPE svg PUBLIC "-//W3C//DTD SVG 1.1//EN" "http://www.w3.org/Graphics/SVG/1.1/DTD/svg11.dtd">
<svg version="1.1" id="Layer_1" xmlns="http://www.w3.org/2000/svg" xmlns:xlink="http://www.w3.org/1999/xlink" x="0px" y="0px"
	 viewBox="1 111.3 594.3 595.3" enable-background="new 1 111.3 594.3 595.3" xml:space="preserve">
<g>
	<defs>
		<rect id="SVGID_1_" y="111.3" width="595.3" height="595.3"/>
	</defs>
	<clipPath id="SVGID_2_">
		<use xlink:href="#SVGID_1_"  overflow="visible"/>
	</clipPath>
	<g clip-path="url(#SVGID_2_)">
		<path fill-opacity="0" d="M0,111.3h595.3v595.3H0V111.3z"/>
		<path fill="#FFFFFF" d="M-10.3,111.3H585v595.2H-10.3V111.3z"/>
		<path fill-opacity="0" d="M8.7,121.2H585v577.6H8.7L8.7,121.2z"/>
		<path fill="none" stroke="#000000" stroke-width="2" stroke-linejoin="round" stroke-miterlimit="10" d="M8.7,121.2H585v577.6H8.7
			L8.7,121.2z"/>
		<path fill="#FFFFFF" d="M29.1,233.1h385.5v402.6H29.1L29.1,233.1z"/>
		<path fill="none" stroke="#000000" stroke-width="2" stroke-linejoin="round" stroke-miterlimit="10" d="M29.1,233.1h385.5v402.6
			H29.1L29.1,233.1z"/>
		<path d="M467.8,299.4h79.1v336.2h-79.1V299.4z"/>
		<path fill="none" stroke="#000000" stroke-width="2" stroke-linejoin="round" stroke-miterlimit="10" d="M467.8,299.4h79.1v336.2
			h-79.1V299.4z"/>
		<path fill="#FFFFFF" d="M483.6,180.7L483.6,180.7c0-14.3,11.9-25.9,26.6-25.9l0,0c7.1,0,13.8,2.7,18.8,7.6
			c5,4.9,7.8,11.5,7.8,18.3l0,0c0,14.3-11.9,25.9-26.6,25.9l0,0C495.6,206.6,483.6,195,483.6,180.7z"/>
		<path fill="none" stroke="#000000" stroke-width="2" stroke-linejoin="round" stroke-miterlimit="10" d="M483.6,180.7L483.6,180.7
			c0-14.3,11.9-25.9,26.6-25.9l0,0c7.1,0,13.8,2.7,18.8,7.6c5,4.9,7.8,11.5,7.8,18.3l0,0c0,14.3-11.9,25.9-26.6,25.9l0,0
			C495.6,206.6,483.6,195,483.6,180.7z"/>
		<path fill="#FFFFFF" d="M54,434.3L54,434.3c0-94,75.2-170.2,167.9-170.2l0,0c44.5,0,87.3,17.9,118.7,49.8s49.2,75.2,49.2,120.3
			l0,0c0,94-75.2,170.2-167.9,170.2l0,0C129.2,604.5,54,528.3,54,434.3z"/>
		<path fill="none" stroke="#000000" stroke-width="2" stroke-linejoin="round" stroke-miterlimit="10" d="M54,434.3L54,434.3
			c0-94,75.2-170.2,167.9-170.2l0,0c44.5,0,87.3,17.9,118.7,49.8s49.2,75.2,49.2,120.3l0,0c0,94-75.2,170.2-167.9,170.2l0,0
			C129.2,604.5,54,528.3,54,434.3z"/>
		<path fill-opacity="0" d="M77.7,373.9h346.4v120.9H77.7L77.7,373.9z"/>
		<path fill-opacity="0" d="M69.7,275.5h304.3v317.7H69.7L69.7,275.5z"/>
		<path fill="none" stroke="#000000" stroke-linejoin="round" stroke-miterlimit="10" d="M70.1,275.5h304.3v317.7H70.1L70.1,275.5z"
			/>
		<path fill-opacity="0" d="M30.3,236l40.1,39.4"/>
		<path fill="none" stroke="#000000" stroke-linejoin="round" stroke-miterlimit="10" d="M30.3,236l40.1,39.4"/>
		<path fill-opacity="0" d="M374.8,593.2l39.5,41.5"/>
		<path fill="none" stroke="#000000" stroke-linejoin="round" stroke-miterlimit="10" d="M374.8,593.2l39.5,41.5"/>
		<path fill-opacity="0" d="M414.2,236l-38.7,39.4"/>
		<path fill="none" stroke="#000000" stroke-linejoin="round" stroke-miterlimit="10" d="M414.2,236l-38.7,39.4"/>
		<path fill-opacity="0" d="M69.7,593.2L31,632.6"/>
		<path fill="none" stroke="#000000" stroke-linejoin="round" stroke-miterlimit="10" d="M69.7,593.2L31,632.6"/>
		<path fill-opacity="0" d="M94.4,212h44.4v21H94.4V212z"/>
		<path fill="none" stroke="#000000" stroke-width="2" stroke-linejoin="round" stroke-miterlimit="10" d="M94.4,212h44.4v21H94.4
			V212z"/>
		<path fill-opacity="0" d="M308.5,212h44.4v21h-44.4V212z"/>
		<path fill="none" stroke="#000000" stroke-width="2" stroke-linejoin="round" stroke-miterlimit="10" d="M308.5,212h44.4v21h-44.4
			V212z"/>
		<path fill-opacity="0" d="M143.9,219.8h157.8V233H143.9V219.8z"/>
		<path fill="none" stroke="#000000" stroke-width="2" stroke-linejoin="round" stroke-miterlimit="10" d="M143.9,219.8h157.8V233
			H143.9V219.8z"/>
		<text transform="matrix(1 0 0 1 70.4297 459.2103)" font-family="'SpecialElite-Regular'" font-size="73.4134">[TEXTO]</text>
	</g>
</g>
</svg>
