<?xml version="1.0" encoding="utf-8"?>
<!-- Generator: Adobe Illustrator 18.0.0, SVG Export Plug-In . SVG Version: 6.00 Build 0)  -->
<!DOCTYPE svg PUBLIC "-//W3C//DTD SVG 1.1//EN" "http://www.w3.org/Graphics/SVG/1.1/DTD/svg11.dtd">
<svg version="1.1" id="Layer_1" xmlns="http://www.w3.org/2000/svg" xmlns:xlink="http://www.w3.org/1999/xlink" x="0px" y="0px"
	 viewBox="0 0 595.3 841.9" enable-background="new 0 0 595.3 841.9" xml:space="preserve">
<g>
	<defs>
		<rect id="SVGID_1_" y="123.3" width="595.3" height="595.3"/>
	</defs>
	<clipPath id="SVGID_2_">
		<use xlink:href="#SVGID_1_"  overflow="visible"/>
	</clipPath>
	<g clip-path="url(#SVGID_2_)">
		<path fill-opacity="0" d="M0,123.3h595.3v595.3H0V123.3z"/>
		<path fill="#FFFFFF" d="M-10.3,123.3h605.6v595.2H-10.3V123.3z"/>
		<path fill-opacity="0" d="M8.7,133.2H585v577.6H8.7L8.7,133.2z"/>
		<path fill="none" stroke="#000000" stroke-width="2" stroke-linejoin="round" stroke-miterlimit="10" d="M8.7,133.2H585v577.6H8.7
			L8.7,133.2z"/>
		<path d="M228.9,150.1h127.1v97.3H228.9V150.1z"/>
		<path fill="#FFFFFF" d="M264.4,198.7c0-4.6,0.5-8.4,1.4-11.2c1-2.8,2.4-5,4.2-6.5c1.9-1.5,4.3-2.3,7.1-2.3c2.1,0,3.9,0.4,5.5,1.3
			c1.6,0.8,2.9,2.1,3.9,3.7c1,1.6,1.8,3.5,2.4,5.8c0.6,2.3,0.9,5.4,0.9,9.2c0,4.6-0.5,8.3-1.4,11.1c-0.9,2.8-2.4,5-4.2,6.5
			c-1.9,1.5-4.2,2.3-7.1,2.3c-3.8,0-6.7-1.4-8.9-4.1C265.6,211.4,264.4,206.1,264.4,198.7z M269.3,198.7c0,6.4,0.7,10.7,2.2,12.9
			c1.5,2.1,3.4,3.2,5.6,3.2s4.1-1.1,5.6-3.2c1.5-2.1,2.3-6.4,2.3-12.8c0-6.5-0.8-10.7-2.3-12.9c-1.5-2.1-3.4-3.2-5.6-3.2
			c-2.2,0-4,0.9-5.3,2.8C270.1,187.9,269.3,192.3,269.3,198.7z M294.8,198.7c0-4.6,0.5-8.4,1.4-11.2c1-2.8,2.4-5,4.2-6.5
			c1.9-1.5,4.3-2.3,7.1-2.3c2.1,0,3.9,0.4,5.5,1.3c1.6,0.8,2.9,2.1,3.9,3.7c1,1.6,1.8,3.5,2.4,5.8c0.6,2.3,0.9,5.4,0.9,9.2
			c0,4.6-0.5,8.3-1.4,11.1c-0.9,2.8-2.4,5-4.2,6.5c-1.9,1.5-4.2,2.3-7.1,2.3c-3.8,0-6.7-1.4-8.9-4.1
			C296.1,211.4,294.8,206.1,294.8,198.7z M299.7,198.7c0,6.4,0.7,10.7,2.2,12.9c1.5,2.1,3.4,3.2,5.6,3.2s4.1-1.1,5.6-3.2
			c1.5-2.1,2.3-6.4,2.3-12.8c0-6.5-0.8-10.7-2.3-12.9c-1.5-2.1-3.4-3.2-5.6-3.2c-2.2,0-4,0.9-5.3,2.8
			C300.6,187.9,299.7,192.3,299.7,198.7z"/>
		<path fill="#FFFFFF" d="M26.1,153.6h188v93.8h-188L26.1,153.6z"/>
		<path fill="none" stroke="#000000" stroke-width="2" stroke-linejoin="round" stroke-miterlimit="10" d="M26.1,153.6h188v93.8
			h-188L26.1,153.6z"/>
		<path fill-opacity="0" d="M26.1,247.6L94,155.1"/>
		<path fill="none" stroke="#000000" stroke-width="2" stroke-linejoin="round" stroke-miterlimit="10" d="M26.1,247.6L94,155.1"/>
		<path fill-opacity="0" d="M64.3,247.6l67.9-92.5"/>
		<path fill="none" stroke="#000000" stroke-width="2" stroke-linejoin="round" stroke-miterlimit="10" d="M64.3,247.6l67.9-92.5"/>
		<path fill-opacity="0" d="M102.4,247.6l67.9-92.5"/>
		<path fill="none" stroke="#000000" stroke-width="2" stroke-linejoin="round" stroke-miterlimit="10" d="M102.4,247.6l67.9-92.5"
			/>
		<path fill-opacity="0" d="M140.6,247.6l67.9-92.5"/>
		<path fill="none" stroke="#000000" stroke-width="2" stroke-linejoin="round" stroke-miterlimit="10" d="M140.6,247.6l67.9-92.5"
			/>
		<path fill="#FFFFFF" d="M56.4,265.3h482.5v414.6H56.4V265.3z"/>
		<path fill="none" stroke="#000000" stroke-width="2" stroke-linejoin="round" stroke-miterlimit="10" d="M56.4,265.3h482.5v414.6
			H56.4V265.3z"/>
		<path fill="#FFFFFF" d="M371,151.8h188v93.8H371V151.8z"/>
		<path fill="none" stroke="#000000" stroke-width="2" stroke-linejoin="round" stroke-miterlimit="10" d="M371,151.8h188v93.8H371
			V151.8z"/>
		<path fill-opacity="0" d="M371,245.8l67.9-92.5"/>
		<path fill="none" stroke="#000000" stroke-width="2" stroke-linejoin="round" stroke-miterlimit="10" d="M371,245.8l67.9-92.5"/>
		<path fill-opacity="0" d="M409.1,245.8l67.9-92.5"/>
		<path fill="none" stroke="#000000" stroke-width="2" stroke-linejoin="round" stroke-miterlimit="10" d="M409.1,245.8l67.9-92.5"
			/>
		<path fill-opacity="0" d="M447.3,245.8l67.9-92.5"/>
		<path fill="none" stroke="#000000" stroke-width="2" stroke-linejoin="round" stroke-miterlimit="10" d="M447.3,245.8l67.9-92.5"
			/>
		<path fill-opacity="0" d="M485.4,245.8l67.9-92.5"/>
		<path fill="none" stroke="#000000" stroke-width="2" stroke-linejoin="round" stroke-miterlimit="10" d="M485.4,245.8l67.9-92.5"
			/>
		<path d="M76.1,274h443v280.4h-443V274z"/>
		<path fill-opacity="0" d="M194.6,580.9h84.3v77.8h-84.3V580.9z"/>
		<path fill="none" stroke="#000000" stroke-linejoin="round" stroke-miterlimit="10" d="M194.6,580.9h84.3v77.8h-84.3V580.9z"/>
		<path d="M235.2,627v-9.9l-9-13.4h3.7l4.6,7c0.9,1.3,1.6,2.6,2.4,3.9c0.7-1.2,1.5-2.6,2.5-4.1l4.5-6.8h3.6l-9.3,13.4v9.9H235.2z"/>
		<path fill-opacity="0" d="M312.7,580.9h84.3v77.8h-84.3V580.9z"/>
		<path fill="none" stroke="#000000" stroke-linejoin="round" stroke-miterlimit="10" d="M312.7,580.9h84.3v77.8h-84.3V580.9z"/>
		<path d="M345.8,627v-23.3h3.2l12.2,18.3v-18.3h2.9V627h-3.2l-12.2-18.3V627H345.8z"/>
		<path fill="#FFFFFF" d="M444.9,586.4h62.8v43.9h-62.8V586.4z"/>
		<path fill="none" stroke="#000000" stroke-width="2" stroke-linejoin="round" stroke-miterlimit="10" d="M444.9,586.4h62.8v43.9
			h-62.8V586.4z"/>
		<path fill="#FFFFFF" d="M454.1,645.9L454.1,645.9c0-4,3.3-7.3,7.3-7.3l0,0c1.9,0,3.8,0.8,5.2,2.1c1.4,1.4,2.1,3.2,2.1,5.2l0,0
			c0,4-3.3,7.3-7.3,7.3l0,0C457.4,653.2,454.1,649.9,454.1,645.9z"/>
		<path fill="none" stroke="#000000" stroke-width="2" stroke-linejoin="round" stroke-miterlimit="10" d="M454.1,645.9L454.1,645.9
			c0-4,3.3-7.3,7.3-7.3l0,0c1.9,0,3.8,0.8,5.2,2.1c1.4,1.4,2.1,3.2,2.1,5.2l0,0c0,4-3.3,7.3-7.3,7.3l0,0
			C457.4,653.2,454.1,649.9,454.1,645.9z"/>
		<path fill="#FFFFFF" d="M483.8,645.9L483.8,645.9c0-4,3.3-7.3,7.3-7.3l0,0c1.9,0,3.8,0.8,5.2,2.1c1.4,1.4,2.1,3.2,2.1,5.2l0,0
			c0,4-3.3,7.3-7.3,7.3l0,0C487,653.2,483.8,649.9,483.8,645.9z"/>
		<path fill="none" stroke="#000000" stroke-width="2" stroke-linejoin="round" stroke-miterlimit="10" d="M483.8,645.9L483.8,645.9
			c0-4,3.3-7.3,7.3-7.3l0,0c1.9,0,3.8,0.8,5.2,2.1c1.4,1.4,2.1,3.2,2.1,5.2l0,0c0,4-3.3,7.3-7.3,7.3l0,0
			C487,653.2,483.8,649.9,483.8,645.9z"/>
		<text transform="matrix(1 0 0 1 183 368.7233)" fill="#FFFFFF" font-family="'MyriadPro-Regular'" font-size="72">[Texto]</text>
	</g>
</g>
</svg>
