<?xml version="1.0" encoding="utf-8"?>
<!-- Generator: Adobe Illustrator 18.0.0, SVG Export Plug-In . SVG Version: 6.00 Build 0)  -->
<!DOCTYPE svg PUBLIC "-//W3C//DTD SVG 1.1//EN" "http://www.w3.org/Graphics/SVG/1.1/DTD/svg11.dtd">
<svg version="1.1" id="Layer_1" xmlns="http://www.w3.org/2000/svg" xmlns:xlink="http://www.w3.org/1999/xlink" x="0px" y="0px"
	 viewBox="0 0 595.3 344.9" enable-background="new 0 0 595.3 344.9" xml:space="preserve">
<g>
	<defs>
		<rect id="SVGID_1_" y="0" width="595.3" height="343"/>
	</defs>
	<clipPath id="SVGID_2_">
		<use xlink:href="#SVGID_1_"  overflow="visible"/>
	</clipPath>
	<g clip-path="url(#SVGID_2_)">
		<path fill-opacity="0" d="M0,0h595.3v343H0V0z"/>
		<path fill="#FFFFFF" d="M112.7,0h352.1v342.9H112.7L112.7,0z"/>
		<path fill-opacity="0" d="M123.6,5.7h332v332.8h-332V5.7z"/>
		<path fill="none" stroke="#000000" stroke-width="2" stroke-linejoin="round" stroke-miterlimit="10" d="M123.6,5.7h332v332.8
			h-332V5.7z"/>
		<path fill="#FFFFFF" d="M397.3,40L397.3,40c0-8.3,6.9-14.9,15.3-14.9l0,0c4.1,0,8,1.6,10.8,4.4s4.5,6.6,4.5,10.6l0,0
			c0,8.3-6.9,14.9-15.3,14.9l0,0C404.1,54.9,397.3,48.2,397.3,40z"/>
		<path fill="none" stroke="#000000" stroke-width="2" stroke-linejoin="round" stroke-miterlimit="10" d="M397.3,40L397.3,40
			c0-8.3,6.9-14.9,15.3-14.9l0,0c4.1,0,8,1.6,10.8,4.4s4.5,6.6,4.5,10.6l0,0c0,8.3-6.9,14.9-15.3,14.9l0,0
			C404.1,54.9,397.3,48.2,397.3,40z"/>
		<path fill-opacity="0" d="M238.1,120.3l51.8-51.8l51.8,51.8l-51.8,51.8L238.1,120.3z"/>
		<path fill="none" stroke="#000000" stroke-width="2" stroke-linejoin="round" stroke-miterlimit="10" d="M238.1,120.3l51.8-51.8
			l51.8,51.8l-51.8,51.8L238.1,120.3z"/>
		<path fill-opacity="0" d="M186,172.5l51.8-51.8l51.8,51.8l-51.8,51.8L186,172.5z"/>
		<path fill="none" stroke="#000000" stroke-width="2" stroke-linejoin="round" stroke-miterlimit="10" d="M186,172.5l51.8-51.8
			l51.8,51.8l-51.8,51.8L186,172.5z"/>
		<path fill-opacity="0" d="M238.1,223.9l51.8-51.8l51.8,51.8l-51.8,51.8L238.1,223.9z"/>
		<path fill="none" stroke="#000000" stroke-width="2" stroke-linejoin="round" stroke-miterlimit="10" d="M238.1,223.9l51.8-51.8
			l51.8,51.8l-51.8,51.8L238.1,223.9z"/>
		<path fill-opacity="0" d="M289.7,172.5l51.8-51.8l51.8,51.8l-51.8,51.8L289.7,172.5z"/>
		<path fill="none" stroke="#000000" stroke-width="2" stroke-linejoin="round" stroke-miterlimit="10" d="M289.7,172.5l51.8-51.8
			l51.8,51.8l-51.8,51.8L289.7,172.5z"/>
		<path fill-opacity="0" d="M471.7,60h94.5v60.7h-94.5V60z"/>
		<path fill-opacity="0" d="M106.8,252.6h152.4"/>
		<path fill="none" stroke="#000000" stroke-width="2" stroke-linejoin="round" stroke-miterlimit="10" d="M106.8,252.6h140.6"/>
		<path stroke="#000000" stroke-width="2" stroke-miterlimit="10" d="M247.4,255.9l8.9-3.3l-8.9-3.3V255.9z"/>
		<path fill-opacity="0" d="M471.7,90.4H327.4"/>
		<path fill="none" stroke="#000000" stroke-width="2" stroke-linejoin="round" stroke-miterlimit="10" d="M471.7,90.4H339.3"/>
		<path stroke="#000000" stroke-width="2" stroke-miterlimit="10" d="M339.3,87.1l-8.9,3.3l8.9,3.3V87.1z"/>
		<path fill-opacity="0" d="M471.7,172.1h-67.5"/>
		<path fill="none" stroke="#000000" stroke-width="2" stroke-linejoin="round" stroke-miterlimit="10" d="M460.5,172.1h-44.4"/>
		<path stroke="#000000" stroke-width="2" stroke-miterlimit="10" d="M416.1,168.8l-8.9,3.3l8.9,3.3V168.8z"/>
		<path fill-opacity="0" d="M105.8,172.5H177"/>
		<path fill="none" stroke="#000000" stroke-width="2" stroke-linejoin="round" stroke-miterlimit="10" d="M105.8,172.5h59.3"/>
		<path stroke="#000000" stroke-width="2" stroke-miterlimit="10" d="M165.1,175.8l8.9-3.3l-8.9-3.3V175.8z"/>
		<text transform="matrix(1 0 0 1 29.1476 145.7322)" font-family="'SpecialElite-Regular'" font-size="33">Vermelho</text>
		<path fill="none" stroke="#000000" stroke-width="2" stroke-linejoin="round" stroke-miterlimit="10" d="M105.8,158.2v15.1"/>
		<text transform="matrix(1 0 0 1 8 260.433)" font-family="'SpecialElite-Regular'" font-size="33">Verde</text>
		<text transform="matrix(1 0 0 1 479.9793 97.433)" font-family="'SpecialElite-Regular'" font-size="33">Azul</text>
		<text transform="matrix(1 0 0 1 462.7406 182.433)" font-family="'SpecialElite-Regular'" font-size="33">Amarelo</text>
	</g>
</g>
</svg>
