<?xml version="1.0" encoding="utf-8"?>
<!-- Generator: Adobe Illustrator 18.0.0, SVG Export Plug-In . SVG Version: 6.00 Build 0)  -->
<!DOCTYPE svg PUBLIC "-//W3C//DTD SVG 1.1//EN" "http://www.w3.org/Graphics/SVG/1.1/DTD/svg11.dtd">
<svg version="1.1" id="Layer_1" xmlns="http://www.w3.org/2000/svg" xmlns:xlink="http://www.w3.org/1999/xlink" x="0px" y="0px"
	 viewBox="0 0 595.3 595.3" enable-background="new 0 0 595.3 595.3" xml:space="preserve">
<g>
	<defs>
		<rect id="SVGID_1_" width="595.3" height="595.3"/>
	</defs>
	<clipPath id="SVGID_2_">
		<use xlink:href="#SVGID_1_"  overflow="visible"/>
	</clipPath>
	<g clip-path="url(#SVGID_2_)">
		<path fill-opacity="0" d="M0,0h595.3v595.3H0V0z"/>
		<path fill="#FFFFFF" d="M-10.3,0H585v595.2H-10.3V0z"/>
		<path fill-opacity="0" d="M8.7,9.9H585v577.6H8.7L8.7,9.9z"/>
		<path fill="none" stroke="#000000" stroke-width="2" stroke-linejoin="round" stroke-miterlimit="10" d="M8.7,9.9H585v577.6H8.7
			L8.7,9.9z"/>
		<path fill="#FFFFFF" d="M483.6,69.4L483.6,69.4c0-14.3,11.9-25.9,26.6-25.9l0,0c7.1,0,13.8,2.7,18.8,7.6c5,4.9,7.8,11.5,7.8,18.3
			l0,0c0,14.3-11.9,25.9-26.6,25.9l0,0C495.6,95.3,483.6,83.7,483.6,69.4z"/>
		<path fill="none" stroke="#000000" stroke-width="2" stroke-linejoin="round" stroke-miterlimit="10" d="M483.6,69.4L483.6,69.4
			c0-14.3,11.9-25.9,26.6-25.9l0,0c7.1,0,13.8,2.7,18.8,7.6c5,4.9,7.8,11.5,7.8,18.3l0,0c0,14.3-11.9,25.9-26.6,25.9l0,0
			C495.6,95.3,483.6,83.7,483.6,69.4z"/>
		<path d="M59.5,43.4H457V159H59.5V43.4z"/>
		<path fill="none" d="M75.9,77.4h370.8v76.1H75.9V77.4z"/>
		<text transform="matrix(1 0 0 1 75.9287 112.9373)" fill="#FFFFFF" font-family="'MyriadPro-Regular'" font-size="50">[MOSTRADOR]</text>
		<path fill-opacity="0" d="M59.5,346.1h182.4v76.7H59.5V346.1z"/>
		<path fill="none" stroke="#000000" stroke-linejoin="round" stroke-miterlimit="10" d="M59.5,346.1h182.4v76.7H59.5V346.1z"/>
		<path fill-opacity="0" d="M59.5,214.2h182.4v76.7H59.5V214.2z"/>
		<path fill="none" stroke="#000000" stroke-linejoin="round" stroke-miterlimit="10" d="M59.5,214.2h182.4v76.7H59.5V214.2z"/>
		<path fill-opacity="0" d="M59.5,462.9h182.4v76.7H59.5V462.9z"/>
		<path fill="none" stroke="#000000" stroke-linejoin="round" stroke-miterlimit="10" d="M59.5,462.9h182.4v76.7H59.5V462.9z"/>
		<path fill-opacity="0" d="M269.3,346.1h182.4v76.7H269.3V346.1z"/>
		<path fill="none" stroke="#000000" stroke-linejoin="round" stroke-miterlimit="10" d="M269.3,346.1h182.4v76.7H269.3V346.1z"/>
		<path fill-opacity="0" d="M269.3,214.2h182.4v76.7H269.3V214.2z"/>
		<path fill="none" stroke="#000000" stroke-linejoin="round" stroke-miterlimit="10" d="M269.3,214.2h182.4v76.7H269.3V214.2z"/>
		<path fill-opacity="0" d="M269.3,462.9h182.4v76.7H269.3V462.9z"/>
		<path fill="none" stroke="#000000" stroke-linejoin="round" stroke-miterlimit="10" d="M269.3,462.9h182.4v76.7H269.3V462.9z"/>
		<path d="M474.6,182h90.1v357.6h-90.1V182z"/>
		<path fill="none" stroke="#000000" stroke-width="2" stroke-linejoin="round" stroke-miterlimit="10" d="M474.6,182h90.1v357.6
			h-90.1V182z"/>
		<path fill="#FFFFFF" d="M496.2,419.3h47v28.2h-47V419.3z"/>
		<path fill="none" stroke="#000000" stroke-width="2" stroke-linejoin="round" stroke-miterlimit="10" d="M496.2,419.3h47v28.2h-47
			V419.3z"/>
		<path fill="#FFFFFF" d="M496.2,357.3h47v28.2h-47V357.3z"/>
		<path fill="none" stroke="#000000" stroke-width="2" stroke-linejoin="round" stroke-miterlimit="10" d="M496.2,357.3h47v28.2h-47
			V357.3z"/>
		<path fill="#FFFFFF" d="M496.2,481.2h47v28.2h-47V481.2z"/>
		<path fill="none" stroke="#000000" stroke-width="2" stroke-linejoin="round" stroke-miterlimit="10" d="M496.2,481.2h47v28.2h-47
			V481.2z"/>
		<text transform="matrix(1 0 0 1 85.0711 263.8752)" font-family="'MyriadPro-Regular'" font-size="36">[TEXTO]</text>
		<text transform="matrix(1 0 0 1 302.6399 263.8753)" font-family="'MyriadPro-Regular'" font-size="36">[TEXTO]</text>
		<text transform="matrix(1 0 0 1 85.071 396.8752)" font-family="'MyriadPro-Regular'" font-size="36">[TEXTO]</text>
		<text transform="matrix(1 0 0 1 302.6397 396.8753)" font-family="'MyriadPro-Regular'" font-size="36">[TEXTO]</text>
		<text transform="matrix(1 0 0 1 85.0713 515.4012)" font-family="'MyriadPro-Regular'" font-size="36">[TEXTO]</text>
		<text transform="matrix(1 0 0 1 302.6401 515.4014)" font-family="'MyriadPro-Regular'" font-size="36">[TEXTO]</text>
	</g>
</g>
</svg>
